<?xml version="1.0" encoding="UTF-8" standalone="no"?>
<!-- Created with Inkscape (http://www.inkscape.org/) -->

<svg version="1.1" id="svg1" width="793.70135" height="793.70135" viewBox="0 0 793.70135 793.70135"
  sodipodi:docname="EP_ green icon.ai" xmlns:inkscape="http://www.inkscape.org/namespaces/inkscape"
  xmlns:sodipodi="http://sodipodi.sourceforge.net/DTD/sodipodi-0.dtd" xmlns="http://www.w3.org/2000/svg"
  xmlns:svg="http://www.w3.org/2000/svg">
  <defs id="defs1">
    <clipPath clipPathUnits="userSpaceOnUse" id="clipPath2">
      <path d="M 0,595.276 H 595.276 V 0 H 0 Z" transform="translate(-562.20101,-297.95771)" id="path2" />
    </clipPath>
    <clipPath clipPathUnits="userSpaceOnUse" id="clipPath4">
      <path d="M 0,595.276 H 595.276 V 0 H 0 Z" transform="translate(-159.6583,-393.15141)" id="path4" />
    </clipPath>
    <clipPath clipPathUnits="userSpaceOnUse" id="clipPath6">
      <path d="M 0,595.276 H 595.276 V 0 H 0 Z" transform="translate(-138.9954,-128.1116)" id="path6" />
    </clipPath>
    <clipPath clipPathUnits="userSpaceOnUse" id="clipPath8">
      <path d="M 0,595.276 H 595.276 V 0 H 0 Z" transform="translate(-200.7409,-158.60101)" id="path8" />
    </clipPath>
    <clipPath clipPathUnits="userSpaceOnUse" id="clipPath10">
      <path d="M 0,595.276 H 595.276 V 0 H 0 Z" transform="translate(-213.72601,-165.7006)" id="path10" />
    </clipPath>
    <clipPath clipPathUnits="userSpaceOnUse" id="clipPath12">
      <path d="M 0,595.276 H 595.276 V 0 H 0 Z" transform="translate(-244.5973,-128.1116)" id="path12" />
    </clipPath>
    <clipPath clipPathUnits="userSpaceOnUse" id="clipPath14">
      <path d="M 0,595.276 H 595.276 V 0 H 0 Z" transform="translate(-272.99151,-165.7006)" id="path14" />
    </clipPath>
    <clipPath clipPathUnits="userSpaceOnUse" id="clipPath16">
      <path d="M 0,595.276 H 595.276 V 0 H 0 Z" transform="translate(-326.86541,-128.1116)" id="path16" />
    </clipPath>
    <clipPath clipPathUnits="userSpaceOnUse" id="clipPath18">
      <path d="M 0,595.276 H 595.276 V 0 H 0 Z" transform="translate(-361.58961,-145.6675)" id="path18" />
    </clipPath>
    <clipPath clipPathUnits="userSpaceOnUse" id="clipPath20">
      <path d="M 0,595.276 H 595.276 V 0 H 0 Z" transform="translate(-408.19781,-131.1935)" id="path20" />
    </clipPath>
    <clipPath clipPathUnits="userSpaceOnUse" id="clipPath22">
      <path d="M 0,595.276 H 595.276 V 0 H 0 Z" transform="translate(-428.22951,-165.7006)" id="path22" />
    </clipPath>
    <clipPath clipPathUnits="userSpaceOnUse" id="clipPath24">
      <path d="M 0,595.276 H 595.276 V 0 H 0 Z" transform="translate(-347.95401,-206.23601)" id="path24" />
    </clipPath>
    <clipPath clipPathUnits="userSpaceOnUse" id="clipPath26">
      <path d="M 0,595.276 H 595.276 V 0 H 0 Z" transform="translate(-413.21861,-208.05011)" id="path26" />
    </clipPath>
    <clipPath clipPathUnits="userSpaceOnUse" id="clipPath28">
      <path d="M 0,595.276 H 595.276 V 0 H 0 Z" transform="translate(-342.74561,-211.3958)" id="path28" />
    </clipPath>
    <clipPath clipPathUnits="userSpaceOnUse" id="clipPath30">
      <path d="M 0,595.276 H 595.276 V 0 H 0 Z" transform="translate(-396.76681,-233.74961)" id="path30" />
    </clipPath>
    <clipPath clipPathUnits="userSpaceOnUse" id="clipPath32">
      <path d="M 0,595.276 H 595.276 V 0 H 0 Z" transform="translate(-460.64571,-262.94471)" id="path32" />
    </clipPath>
    <clipPath clipPathUnits="userSpaceOnUse" id="clipPath34">
      <path d="M 0,595.276 H 595.276 V 0 H 0 Z" transform="translate(-438.52231,-281.1941)" id="path34" />
    </clipPath>
    <clipPath clipPathUnits="userSpaceOnUse" id="clipPath36">
      <path d="M 0,595.276 H 595.276 V 0 H 0 Z" transform="translate(-412.65791,-270.77461)" id="path36" />
    </clipPath>
    <clipPath clipPathUnits="userSpaceOnUse" id="clipPath38">
      <path d="M 0,595.276 H 595.276 V 0 H 0 Z" transform="translate(-421.90621,-246.64031)" id="path38" />
    </clipPath>
    <clipPath clipPathUnits="userSpaceOnUse" id="clipPath40">
      <path d="M 0,595.276 H 595.276 V 0 H 0 Z" transform="translate(-342.81111,-268.59841)" id="path40" />
    </clipPath>
    <clipPath clipPathUnits="userSpaceOnUse" id="clipPath42">
      <path d="M 0,595.276 H 595.276 V 0 H 0 Z" transform="translate(-169.8672,-216.38291)" id="path42" />
    </clipPath>
    <clipPath clipPathUnits="userSpaceOnUse" id="clipPath44">
      <path d="M 0,595.276 H 595.276 V 0 H 0 Z" transform="translate(-287.38821,-228.42451)" id="path44" />
    </clipPath>
    <clipPath clipPathUnits="userSpaceOnUse" id="clipPath46">
      <path d="M 0,595.276 H 595.276 V 0 H 0 Z" transform="translate(-306.69311,-235.0589)" id="path46" />
    </clipPath>
    <clipPath clipPathUnits="userSpaceOnUse" id="clipPath48">
      <path d="M 0,595.276 H 595.276 V 0 H 0 Z" transform="translate(-263.2213,-206.03801)" id="path48" />
    </clipPath>
    <clipPath clipPathUnits="userSpaceOnUse" id="clipPath50">
      <path d="M 0,595.276 H 595.276 V 0 H 0 Z" transform="translate(-255.77041,-263.46371)" id="path50" />
    </clipPath>
    <clipPath clipPathUnits="userSpaceOnUse" id="clipPath52">
      <path d="M 0,595.276 H 595.276 V 0 H 0 Z" transform="translate(-257.0395,-263.20711)" id="path52" />
    </clipPath>
    <clipPath clipPathUnits="userSpaceOnUse" id="clipPath54">
      <path d="M 0,595.276 H 595.276 V 0 H 0 Z" transform="translate(-204.8812,-213.7196)" id="path54" />
    </clipPath>
    <clipPath clipPathUnits="userSpaceOnUse" id="clipPath56">
      <path d="M 0,595.276 H 595.276 V 0 H 0 Z" transform="translate(-192.02391,-268.59841)" id="path56" />
    </clipPath>
    <clipPath clipPathUnits="userSpaceOnUse" id="clipPath58">
      <path d="M 0,595.276 H 595.276 V 0 H 0 Z" transform="translate(-140.7381,-248.1074)" id="path58" />
    </clipPath>
    <clipPath clipPathUnits="userSpaceOnUse" id="clipPath60">
      <path d="M 0,595.276 H 595.276 V 0 H 0 Z" id="path60" />
    </clipPath>
    <clipPath clipPathUnits="userSpaceOnUse" id="clipPath62">
      <path d="M 0,595.276 H 595.276 V 0 H 0 Z" transform="translate(-227.78661,-433.64211)" id="path62" />
    </clipPath>
  </defs>
  <sodipodi:namedview id="namedview1" pagecolor="#ffffff" bordercolor="#000000" borderopacity="0.25"
    inkscape:showpageshadow="2" inkscape:pageopacity="0.0" inkscape:pagecheckerboard="0" inkscape:deskcolor="#d1d1d1">
    <inkscape:page x="0" y="0" inkscape:label="1" id="page1" width="793.70135" height="793.70135"
      margin="44.584934 44.099998 43.731998 44.217468" bleed="0" />
  </sodipodi:namedview>
  <g id="layer-MC0" inkscape:groupmode="layer" inkscape:label="Layer 1">
    <path id="path1"
      d="m 0,0 c 0,-146.09 -118.429,-264.519 -264.519,-264.519 -146.09,0 -264.519,118.429 -264.519,264.519 0,146.09 118.429,264.519 264.519,264.519 C -118.429,264.519 0,146.09 0,0"
      style="fill:#06965f;fill-opacity:1;fill-rule:nonzero;stroke:none"
      transform="matrix(1.3333333,0,0,-1.3333333,749.60133,396.4244)" clip-path="url(#clipPath2)" />
    <path id="path3"
      d="m 0,0 c -51.134,-52.559 -62.248,-111.364 -29.253,-142.866 6.016,-5.982 13.639,-10.747 22.504,-14.247 12.765,-5.202 27.439,-7.498 43.168,-7.152 22.614,0.241 47.875,5.623 72.903,16.53 38.091,16.624 66.473,41.699 79.997,67.565 6.888,10 14.145,42.767 -2.594,57.668 -1.814,1.618 -3.697,3.09 -5.603,4.524 -1.678,-3.903 -9.828,-21.067 -13.731,-29.931 -23.054,-2.629 -63.444,28.256 -55.614,31.743 10.357,4.605 22.434,10.058 31.458,14.032 C 78.552,10.459 3.398,-48.105 -19.242,-73.063 -1.469,-12.928 148.217,87.76 232.718,68.06 c 8.563,6.199 23.58,14.097 44.039,11.479 -1.699,-7.715 -6.338,-19.229 -11.964,-27.541 14.857,-15.352 10.7,-42.513 -6.176,-73.282 -17.129,-34.626 -46.223,-70.733 -84.589,-101.939 -86.43,-70.241 -187.278,-88.988 -225.278,-41.893 -1.17,1.448 -2.272,2.963 -3.306,4.5 -27.209,36.508 -10.103,100.858 45.6,158.09 13.412,13.799 28.083,26.177 43.422,36.924 24.546,17.357 55.339,34.465 91.823,45.21 l -3.72,-2.412 C 119.974,76.188 116.186,74.649 111.502,72.628 102.112,68.565 89.069,62.525 74.442,54.488 62.688,48.014 49.852,40.139 37.128,31.115 23.926,22.101 11.388,11.689 0,0"
      style="fill:#25814c;fill-opacity:1;fill-rule:nonzero;stroke:none"
      transform="matrix(1.3333333,0,0,-1.3333333,212.87773,269.49947)" clip-path="url(#clipPath4)" />
    <path id="path5"
      d="m 0,0 c 0.275,0.441 0.551,1.431 0.551,1.871 l 0.054,31.481 c 0,1.65 -0.33,2.201 -2.145,4.236 h 20.968 v -7.649 c -1.377,2.256 -2.477,3.082 -4.294,3.082 H 12.933 6.439 V 21.409 H 15.85 V 15.19 c -1.267,1.706 -2.642,2.256 -5.724,2.256 H 6.329 V 2.588 c 3.248,-0.497 4.403,-0.607 6.714,-0.607 0.882,0 1.706,0 2.532,0.054 4.072,0.331 5.724,0.992 9.08,3.524 l -2.586,-7.65 H -2.035 C -0.826,-1.211 -0.385,-0.714 0,0"
      style="fill:#ffffff;fill-opacity:1;fill-rule:nonzero;stroke:none"
      transform="matrix(1.3333333,0,0,-1.3333333,185.3272,622.88587)" clip-path="url(#clipPath6)" />
    <path id="path7"
      d="m 0,0 c -0.551,0.385 -1.046,0.716 -1.486,0.99 -2.311,1.486 -4.733,2.093 -8.311,2.093 -9.96,0 -16.564,-6.22 -16.564,-15.631 0,-9.687 7.265,-16.455 17.61,-16.455 1.927,0 3.743,0.33 7.101,1.321 v 11.503 c 0,0.494 -0.166,1.374 -0.441,1.981 -0.221,0.604 -0.716,1.155 -1.706,2.091 h 8.254 v -19.759 c -1.211,-0.275 -2.2,-0.55 -2.807,-0.66 -3.685,-0.715 -7.099,-1.046 -10.401,-1.046 -4.567,0 -8.42,0.661 -11.612,1.982 -7.265,3.248 -11.942,10.347 -11.942,18.326 0,6.989 3.356,13.374 9.136,17.282 4.127,2.862 8.53,3.963 15.575,3.963 2.971,0 4.182,-0.166 7.594,-0.992 z"
      style="fill:#ffffff;fill-opacity:1;fill-rule:nonzero;stroke:none"
      transform="matrix(1.3333333,0,0,-1.3333333,267.65453,582.23333)" clip-path="url(#clipPath8)" />
    <path id="path9"
      d="m 0,0 11.062,-17.391 8.972,13.153 c 0.385,0.495 0.549,1.211 0.549,1.706 0,0.716 -0.495,1.321 -1.816,2.532 h 9.797 L 13.318,-22.013 v -13.706 c 0,-1.54 0.661,-2.585 2.588,-3.962 H 4.788 c 1.212,0.882 1.706,1.377 1.982,2.093 0.165,0.275 0.275,0.714 0.441,1.099 0.109,0.495 0.163,0.716 0.163,0.77 l 0.11,13.815 -11.941,17.666 c -0.22,0.22 -0.386,0.441 -0.661,0.77 -1.101,1.156 -1.267,1.321 -2.586,2.203 -0.387,0.275 -0.991,0.66 -1.761,1.265 z"
      style="fill:#ffffff;fill-opacity:1;fill-rule:nonzero;stroke:none"
      transform="matrix(1.3333333,0,0,-1.3333333,284.968,572.7672)" clip-path="url(#clipPath10)" />
    <path id="path11"
      d="m 0,0 c 0.22,0.441 0.495,1.431 0.495,1.871 l 0.056,31.481 v 0.22 0.55 c 0,0.385 -0.166,0.771 -0.386,1.211 -0.275,0.659 -0.716,1.156 -1.761,2.255 H 9.687 c 9.3,0 14.583,-3.631 14.583,-10.072 0,-5.997 -5.944,-10.511 -13.813,-10.511 -1.157,0 -1.706,0.056 -3.083,0.551 3.412,0.441 4.789,0.88 6.439,1.816 2.753,1.596 4.403,4.238 4.403,7.155 0,4.237 -3.521,7.264 -8.421,7.264 -0.495,0 -1.21,0 -2.201,-0.054 -0.22,-0.056 -0.66,-0.056 -1.1,-0.111 V 1.871 c 0,-0.494 0.166,-1.32 0.44,-1.927 0.331,-0.658 0.771,-1.209 1.981,-2.035 H -1.871 C -0.77,-1.211 -0.329,-0.714 0,0"
      style="fill:#ffffff;fill-opacity:1;fill-rule:nonzero;stroke:none"
      transform="matrix(1.3333333,0,0,-1.3333333,326.12973,622.88587)" clip-path="url(#clipPath12)" />
    <path id="path13"
      d="m 0,0 h 29.829 l -2.476,-7.925 c -0.441,0.77 -0.936,1.265 -1.211,1.54 -1.212,1.102 -3.522,1.706 -6.495,1.706 -0.826,0 -1.486,-0.054 -3.027,-0.219 v -30.821 c 0,-0.109 0.056,-0.385 0.166,-0.77 0.11,-0.385 0.219,-0.77 0.385,-1.099 0.331,-0.662 0.936,-1.211 2.147,-2.093 H 8.254 c 1.157,0.882 1.598,1.431 1.872,2.093 0.111,0.219 0.275,0.66 0.385,1.099 0.056,0.385 0.111,0.607 0.111,0.77 v 30.767 c -1.871,0.164 -2.641,0.164 -3.413,0.164 -1.1,0 -2.035,-0.11 -2.971,-0.164 C 1.596,-5.174 0.275,-5.668 -2.366,-7.43 Z"
      style="fill:#ffffff;fill-opacity:1;fill-rule:nonzero;stroke:none"
      transform="matrix(1.3333333,0,0,-1.3333333,363.98867,572.7672)" clip-path="url(#clipPath14)" />
    <path id="path15"
      d="m 0,0 c 0.22,0.441 0.495,1.431 0.495,1.871 l 0.056,31.481 v 0.22 0.55 c 0,0.385 -0.166,0.771 -0.386,1.211 -0.275,0.659 -0.716,1.156 -1.761,2.255 H 9.687 c 9.3,0 14.583,-3.631 14.583,-10.072 0,-5.997 -5.944,-10.511 -13.813,-10.511 -1.157,0 -1.708,0.056 -3.083,0.551 3.412,0.441 4.789,0.88 6.439,1.816 2.753,1.596 4.403,4.238 4.403,7.155 0,4.237 -3.521,7.264 -8.421,7.264 -0.495,0 -1.21,0 -2.201,-0.054 -0.22,-0.056 -0.66,-0.056 -1.1,-0.111 V 1.871 c 0,-0.494 0.166,-1.32 0.44,-1.927 0.331,-0.658 0.772,-1.209 1.981,-2.035 H -1.871 C -0.77,-1.211 -0.331,-0.714 0,0"
      style="fill:#ffffff;fill-opacity:1;fill-rule:nonzero;stroke:none"
      transform="matrix(1.3333333,0,0,-1.3333333,435.82053,622.88587)" clip-path="url(#clipPath16)" />
    <path id="path17"
      d="m 0,0 c 0.385,-9.575 7.099,-16.674 15.794,-16.674 8.091,0 13.925,6.712 13.925,15.96 0,9.74 -6.604,17.28 -15.136,17.28 C 5.778,16.566 0,10.237 0,0.716 Z m 15.024,20.914 c 12.329,0 20.693,-8.422 20.693,-20.748 0,-12.604 -8.201,-20.803 -20.803,-20.803 -12.492,0 -21.079,8.586 -21.079,21.078 0,12.107 8.697,20.473 21.189,20.473"
      style="fill:#ffffff;fill-opacity:1;fill-rule:nonzero;stroke:none"
      transform="matrix(1.3333333,0,0,-1.3333333,482.11947,599.478)" clip-path="url(#clipPath18)" />
    <path id="path19"
      d="m 0,0 c 2.203,-0.714 4.403,-1.046 5.944,-1.046 4.678,0 8.256,2.642 8.256,6.11 0,1.211 -0.606,2.805 -1.267,3.521 -0.936,0.882 -3.356,2.313 -5.393,3.083 l -5.337,2.091 c -5.12,1.926 -8.035,5.559 -8.035,9.962 0,6.658 5.997,11.172 14.968,11.172 2.586,0 4.623,-0.276 7.484,-1.046 v -6.989 c -3.521,2.695 -5.337,3.466 -8.529,3.466 -4.679,0 -7.816,-2.311 -7.816,-5.833 0,-2.478 1.872,-4.293 6.164,-6.055 l 4.954,-2.035 c 6.494,-2.586 9.08,-5.503 9.08,-10.292 0,-7.209 -6.494,-12.163 -16.016,-12.163 -1.265,0 -2.64,0.11 -4.072,0.276 -2.091,0.331 -2.807,0.495 -4.677,1.211 L -6.329,2.917 C -3.743,1.321 -2.751,0.826 0,0"
      style="fill:#ffffff;fill-opacity:1;fill-rule:nonzero;stroke:none"
      transform="matrix(1.3333333,0,0,-1.3333333,544.26373,618.77667)" clip-path="url(#clipPath20)" />
    <path id="path21"
      d="m 0,0 h 29.829 l -2.476,-7.925 c -0.441,0.77 -0.936,1.265 -1.211,1.54 -1.212,1.102 -3.522,1.706 -6.495,1.706 -0.826,0 -1.486,-0.054 -3.027,-0.219 v -30.821 c 0,-0.109 0.056,-0.385 0.166,-0.77 0.11,-0.385 0.219,-0.77 0.385,-1.099 0.331,-0.662 0.936,-1.211 2.147,-2.093 H 8.254 c 1.157,0.882 1.598,1.431 1.872,2.093 0.111,0.219 0.275,0.66 0.385,1.099 0.056,0.385 0.111,0.607 0.111,0.77 v 30.767 c -1.871,0.164 -2.641,0.164 -3.413,0.164 -1.1,0 -2.035,-0.11 -2.971,-0.164 C 1.596,-5.174 0.275,-5.668 -2.366,-7.43 Z"
      style="fill:#ffffff;fill-opacity:1;fill-rule:nonzero;stroke:none"
      transform="matrix(1.3333333,0,0,-1.3333333,570.97267,572.7672)" clip-path="url(#clipPath22)" />
    <path id="path23" d="M 0,0 5.606,-4.517 9.776,0.775 4.203,5.16 Z"
      style="fill:#ffffff;fill-opacity:1;fill-rule:nonzero;stroke:none"
      transform="matrix(1.3333333,0,0,-1.3333333,463.93867,518.72)" clip-path="url(#clipPath24)" />
    <path id="path25" d="M 0,0 5.606,-4.518 9.776,0.774 4.203,5.16 Z"
      style="fill:#ffffff;fill-opacity:1;fill-rule:nonzero;stroke:none"
      transform="matrix(1.3333333,0,0,-1.3333333,550.95813,516.3012)" clip-path="url(#clipPath26)" />
    <path id="path27" d="m 0,0 -4.22,-5.16 5.604,-4.516 4.171,5.29 z"
      style="fill:#ffffff;fill-opacity:1;fill-rule:nonzero;stroke:none"
      transform="matrix(1.3333333,0,0,-1.3333333,456.99413,511.84027)" clip-path="url(#clipPath28)" />
    <path id="path29"
      d="M 0,0 C 0.411,1.912 0.676,5.308 -4.435,12.43 L -6.264,5.984 c 0,0 0.808,-1.227 1.549,-2.656 0.725,-1.357 1.484,-3.014 1.798,-4.415 -1.222,-1.229 -6.991,-5.54 -15.184,-7.436 -8.868,-2.059 -34.321,-6.905 -42.515,4.797 -1.187,1.806 -3.215,10.938 -3.741,14.918 -0.528,3.942 -3.1,17.262 -9.364,24.828 -0.741,-4.214 -1.088,-8.227 -1.039,-8.368 0.016,-0.024 7.221,-17.2 8.195,-26.268 -1.106,-2.935 -8.442,-13.171 -24.514,-19.517 -2.227,-0.751 -7.32,0.462 -6.562,5.538 0.428,2.786 1.106,5.111 1.748,6.874 0.642,1.755 1.268,2.992 1.516,3.511 0.181,0.495 0.461,1.189 0.609,1.848 0.166,0.658 0.265,1.516 -0.773,2.225 -0.364,-0.181 -0.626,-0.363 -1.105,-0.84 l -0.413,-1.321 c -0.228,-0.692 -0.542,-1.589 -0.937,-2.365 -0.793,-1.573 -4.238,-9.24 -2.853,-14.811 1.399,-5.688 5.933,-8.16 12.198,-5.655 6.017,2.391 18.908,10.815 22.947,19.618 l 0.478,-1.302 c 0.791,-2.044 2.077,-4.51 3.939,-6.003 0.891,-0.707 1.848,-1.498 3.001,-2.272 1.171,-0.793 2.556,-1.56 4.269,-2.218 3.431,-1.311 8.145,-2.135 15.2,-1.74 13.997,0.807 27.646,3.001 36.169,11.111 C -0.742,-2.563 -0.362,-1.765 0,0"
      style="fill:#ffffff;fill-opacity:1;fill-rule:nonzero;stroke:none"
      transform="matrix(1.3333333,0,0,-1.3333333,529.0224,482.0352)" clip-path="url(#clipPath30)" />
    <path id="path31"
      d="m 0,0 c -0.577,2.284 -5.06,15.545 -6.561,18.25 l -3.215,-5.779 c 0.018,-0.024 0.692,-1.246 0.692,-2.112 0,-1.012 3.396,-41.962 3.396,-47.698 0,-5.745 -0.528,-13.576 -0.808,-17.835 1.599,2.471 5.294,8.216 4.98,16.467 -0.329,8.094 -1.6,33.333 -1.88,38.921 l 0.908,-0.908 c 0.296,-0.311 0.543,-0.583 0.725,-0.873 0.23,-0.355 0.874,-0.791 1.35,-0.709 C 0.148,-2.176 0.396,-1.518 0,0"
      style="fill:#ffffff;fill-opacity:1;fill-rule:nonzero;stroke:none"
      transform="matrix(1.3333333,0,0,-1.3333333,614.19427,443.1084)" clip-path="url(#clipPath32)" />
    <path id="path33"
      d="m 0,0 -3.198,-5.778 c 0.018,-0.025 0.694,-1.246 0.694,-2.112 0,-0.964 3.048,-38.467 3.048,-47.427 -0.23,-0.239 -0.577,-0.568 -1.072,-0.897 -1.12,-0.758 -2.983,-1.624 -5.982,-1.987 -5.705,-0.7 -7.617,3.025 -8.03,7.279 -0.214,2.199 -0.461,4.961 -0.89,7.352 -0.396,2.349 -1.006,4.583 -1.994,5.497 -0.759,0.52 -1.946,0.263 -2.474,-1.517 -0.131,-0.42 -0.228,-0.997 -0.328,-1.649 l -0.264,-1.969 c -0.166,-1.385 -0.314,-2.473 -0.445,-2.744 -0.28,-0.562 -1.056,-1.839 -6.182,-3.158 -1.039,-0.239 -2.952,-0.38 -6.925,7.204 -1.516,-4.088 -1.896,-5.16 -1.812,-5.357 0.033,-0.066 4.337,-10.418 4.337,-12.966 -0.594,-1.178 -5.261,-10.237 -46.573,-22.46 3.743,-0.214 21.761,1.293 21.761,1.293 0,0 5.44,2.069 11.26,4.921 5.752,2.837 12.182,6.563 14.078,9.915 1.995,4.988 2.72,8.647 2.638,11.524 2.356,-0.363 7.666,0.296 9.494,4.607 0.083,1.303 0.264,2.985 0.412,4.278 0.38,-1.12 0.61,-2.183 0.71,-3.618 0.082,-1.137 0.214,-3.347 0.625,-5.597 0.398,-2.232 1.072,-4.616 2.327,-5.983 2.472,-2.721 9.345,-4.526 16.237,0.963 l 0.643,0.8 c 0.327,0.504 0.789,1.244 1.219,2.143 0.873,1.797 1.746,4.294 1.631,7.031 -0.51,10.766 -1.615,27.728 -1.763,32.377 l 0.908,-0.908 c 0.296,-0.312 0.526,-0.584 0.725,-0.873 0.23,-0.356 0.857,-0.791 1.35,-0.709 0.561,0.099 0.809,0.758 0.413,2.275 C 5.984,-15.965 1.516,-2.704 0,0"
      style="fill:#ffffff;fill-opacity:1;fill-rule:nonzero;stroke:none"
      transform="matrix(1.3333333,0,0,-1.3333333,584.6964,418.77587)" clip-path="url(#clipPath34)" />
    <path id="path35" d="m 0,0 -53.839,-17.845 -2.408,-4.928 c 0,0 42.664,15.191 52.373,17.936 C -3.034,-3.677 0,0 0,0"
      style="fill:#ffffff;fill-opacity:1;fill-rule:nonzero;stroke:none"
      transform="matrix(1.3333333,0,0,-1.3333333,550.21053,432.66853)" clip-path="url(#clipPath36)" />
    <path id="path37"
      d="M 0,0 C 2.506,-1.871 3.858,0.694 4.302,4.123 4.386,4.558 4.402,4.83 4.369,5.029 4.32,5.233 4.236,5.341 3.511,4.938 L 3.133,3.99 C 3.001,3.677 2.868,3.379 2.704,3.149 2.391,2.729 2.011,2.523 1.335,2.901 c -1.83,1.006 -0.791,5.688 0.197,9.116 0.956,3.281 1.979,5.853 1.995,6.151 0,0.113 -0.031,0.378 -0.856,0.313 C 2.506,18.331 2.373,18.084 2.241,17.772 2.011,17.16 0.544,13.519 -0.181,10.616 -0.873,7.798 -2.243,1.675 0,0"
      style="fill:#ffffff;fill-opacity:1;fill-rule:nonzero;stroke:none"
      transform="matrix(1.3333333,0,0,-1.3333333,562.5416,464.8476)" clip-path="url(#clipPath38)" />
    <path id="path39"
      d="m 0,0 c 0.89,-1.352 3.346,-5.703 3.544,-5.571 0.378,0.248 0.643,0.641 1.039,1.581 L 6.099,2.168 C 6.216,2.687 6.545,3.1 6.907,3.067 7.319,3.009 8.211,1.582 8.423,1.22 L 9.216,2.391 C 9.511,2.886 9.875,3.48 9.973,4.039 7.204,8.26 5.606,5.4 5.226,4.327 4.879,3.363 4.203,0.957 3.692,-1.277 1.549,3.379 -1.615,5.506 -1.845,5.672 c 0,0 -0.365,-0.76 -0.579,-1.533 C -2.638,3.379 -2.819,2.358 -2.654,1.37 -2.358,-0.528 -0.643,-0.239 0,0"
      style="fill:#ffffff;fill-opacity:1;fill-rule:nonzero;stroke:none"
      transform="matrix(1.3333333,0,0,-1.3333333,457.08147,435.57013)" clip-path="url(#clipPath40)" />
    <path id="path41"
      d="m 0,0 c 3.774,1.821 9.875,5.778 11.424,10.83 1.518,4.938 0.61,6.733 -1.039,7.855 -0.824,0.586 -3.133,0.725 -5.34,0.791 -2.307,0.067 -4.815,0.051 -6.331,0.173 -2.703,0.24 -4.203,1.211 -5.275,2.539 0.692,1.624 4.846,7.806 8.77,9.932 1.731,0.932 2.869,0.774 3.527,0.462 0.347,-0.164 0.595,-0.363 0.758,-0.528 L 7.286,31 c 0,0 1.27,3.511 1.683,5.835 C 7.946,39.144 5.918,39.242 4.22,38.747 2.555,38.254 1.023,37.156 0.561,36.802 -4.7,32.624 -9.793,26.344 -9.758,19.41 c 0,-3.569 3.659,-5.052 7.122,-5.695 3.525,-0.651 7.334,-0.503 8.439,-0.503 1.55,0 2.423,-0.256 2.983,-0.493 C 7.583,11.159 4.369,7.904 -8.439,2.685 c -13.963,-5.71 -21.036,0.52 -23.442,5.928 -1.187,2.67 -0.875,6.561 -0.199,9.957 0.66,3.379 1.681,6.148 1.814,6.51 0.296,0.858 0.181,1.469 -0.577,1.699 -0.413,0.115 -0.76,-0.082 -1.237,-0.47 0,0 -1.715,-4.656 -1.912,-5.465 C -38.475,5.975 -33.596,-1.708 -24.958,-4.55 -15.859,-7.559 -3.724,-1.79 0,0"
      style="fill:#ffffff;fill-opacity:1;fill-rule:nonzero;stroke:none"
      transform="matrix(1.3333333,0,0,-1.3333333,226.4896,505.1908)" clip-path="url(#clipPath42)" />
    <path id="path43"
      d="m 0,0 c -0.411,0.396 -0.676,0.775 -0.906,1.171 l 0.329,0.042 C 0.016,1.262 0.908,1.228 2.11,0.866 3.644,0.396 3.858,-0.822 3.858,-1.476 1.979,-1.5 0.758,-0.758 0,0 m -39.414,-2.663 c 1.434,2.836 7.714,14.368 14.473,14.268 4.532,-0.075 7.054,-5.984 7.796,-8.012 -2.34,-1.54 -12.94,-7.515 -22.269,-6.256 M 7.601,4.236 C 6.331,6.503 3.792,7.071 1.748,7.089 0.709,7.106 -0.247,6.982 -1.516,6.742 c -0.561,10.485 -1.485,23.763 -1.748,27.291 0,0.314 0.049,0.586 0.446,0.767 0.643,-0.66 1.103,-1.268 1.499,-1.847 0.232,-0.354 0.857,-0.791 1.352,-0.709 0.561,0.099 0.809,0.76 0.411,2.276 -0.592,2.291 -5.175,15.547 -6.675,18.249 l -3.198,-5.778 c 0,-0.024 0.676,-1.277 0.676,-2.135 0.743,-6.512 1.697,-19.668 2.853,-39.425 -2.013,-0.634 -6.035,-1.995 -8.441,-3.007 0.263,1.268 0.61,3.471 0.725,5.177 0.181,2.636 -3.593,8.95 -9,9.906 -5.144,0.908 -9.99,-4.154 -13.47,-9.099 -1.764,-2.513 -3.231,-5.085 -4.269,-7.056 l -1.45,-2.901 c -0.875,0.528 -1.368,1.171 -1.649,1.739 -0.165,0.338 -0.28,0.667 -0.346,0.964 l -0.133,0.775 c -0.031,0.281 0.084,0.774 0.314,1.352 0.198,0.56 0.479,1.088 0.61,1.386 0.198,0.444 0.148,0.822 -0.148,1.35 -0.462,0.347 -1.105,0.033 -1.269,-0.148 -3.117,-3.808 -13.386,-7.632 -26.872,-7.467 -6.726,0.082 -10.929,0.939 -13.797,2.077 -1.417,0.561 -2.539,1.203 -3.462,1.853 -0.955,0.669 -1.715,1.345 -2.456,1.97 -2.852,2.457 -4.847,8.375 -5.274,9.678 0,0 -1.88,-4.83 -2.342,-6.627 3.378,-7.302 4.353,-12.908 4.368,-13.717 -4.748,-6.008 -16.502,-11.366 -27.216,-15.214 -5.359,-1.929 -10.419,-3.471 -14.127,-4.583 l -4.435,-1.361 c -0.477,-0.156 -0.908,-0.289 -1.221,-0.435 -0.297,-0.133 -0.593,-0.323 -0.527,-0.76 0,0 19.766,1.518 22.469,1.567 16.979,5.093 24.827,13.534 25.188,14.027 0.347,0.479 0.826,1.378 1.931,4.666 0.393,1.17 0.674,1.978 0.873,2.886 0.148,0.742 0.247,1.534 0.296,2.645 5.67,-3.272 16.402,-5.283 24.134,-4.534 11.029,1.081 17.161,3.999 20.079,5.878 0.131,-2.029 0.676,-3.33 1.335,-4.212 0.363,-0.502 0.774,-0.85 1.633,-1.451 -0.462,-1.344 -0.824,-3.494 -0.694,-4.097 0.133,-0.643 0.61,-0.774 1.007,-0.643 0.328,0.083 0.708,0.38 0.757,0.652 0.033,0.189 0.512,1.721 1.04,3.124 4.137,-1.236 9.858,-0.356 15.066,1.005 5.391,1.419 10.354,3.395 12.661,4.245 3.971,1.474 7.023,2.415 8.457,2.835 0.28,-1.507 1.27,-5.133 4.269,-6.322 3.379,-1.334 4.978,-0.23 5.77,0.413 1.352,1.088 2.423,3.956 3.117,6.643 0.312,1.171 0.361,1.979 0.294,2.556 -0.015,0.303 -0.08,0.56 -0.294,1.07"
      style="fill:#ffffff;fill-opacity:1;fill-rule:nonzero;stroke:none"
      transform="matrix(1.3333333,0,0,-1.3333333,383.18427,489.13533)" clip-path="url(#clipPath44)" />
    <path id="path45"
      d="m 0,0 c 0.115,-2.793 0.329,-5.719 0.396,-8.439 0.048,-2.711 -0.084,-5.186 0.214,-7.46 1.631,2.497 4.137,6.479 3.807,14.712 -0.313,8.096 -1.336,23.575 -1.582,28.585 0,0.331 0.049,0.57 0.347,0.702 L 4.088,27.192 C 4.384,26.88 4.632,26.608 4.813,26.319 5.06,25.964 5.686,25.528 6.182,25.61 6.742,25.709 6.974,26.368 6.594,27.886 6,30.168 1.352,42.936 0.098,46.282 l -3.28,-5.925 c 0,-0.024 0.676,-1.246 0.676,-2.112 C -2.506,37.233 -0.214,5.745 0,0"
      style="fill:#ffffff;fill-opacity:1;fill-rule:nonzero;stroke:none"
      transform="matrix(1.3333333,0,0,-1.3333333,408.92413,480.28947)" clip-path="url(#clipPath46)" />
    <path id="path47"
      d="m 0,0 c -0.281,-0.378 -0.61,-0.882 -0.89,-1.385 -0.394,-0.758 0.231,-0.931 1.204,-0.807 l 0.296,0.066 19.122,7.195 c 0,0 0.792,1.403 1.435,2.976 C 3.825,1.938 0.512,0.692 0,0"
      style="fill:#ffffff;fill-opacity:1;fill-rule:nonzero;stroke:none"
      transform="matrix(1.3333333,0,0,-1.3333333,350.96173,518.984)" clip-path="url(#clipPath48)" />
    <path id="path49"
      d="M 0,0 C 0.908,0.758 1.5,0.239 1.269,-0.256 0.939,-0.486 0.462,-0.742 -0.084,-0.99 -0.676,-1.244 -1.087,-1.394 -1.401,-1.45 -1.039,-1.005 -0.544,-0.453 0,0 m -14.754,-8.836 c 1.516,0.364 3.164,1.434 4.567,2.497 1.401,1.073 2.572,2.169 3.182,2.638 1.12,0.882 1.73,0.545 3.032,-0.758 0.594,-0.312 1.485,-0.429 2.886,0 2.817,0.873 3.955,3.182 4.187,4.928 0.23,1.814 -1.37,3.248 -3.133,2.03 -0.873,-0.594 -2.062,-2.163 -3.609,-2.87 -0.28,0.28 -0.66,0.42 -1.352,0.371 -0.875,-0.075 -1.863,-0.742 -2.868,-1.575 -1.008,-0.831 -2.095,-1.861 -3.2,-2.752 -2.192,-1.765 -6.872,-4.131 -7.236,-4.253 -0.215,-0.066 -0.445,-0.206 -0.628,-0.99 0.314,-0.131 1.271,0.033 4.172,0.734"
      style="fill:#ffffff;fill-opacity:1;fill-rule:nonzero;stroke:none"
      transform="matrix(1.3333333,0,0,-1.3333333,341.0272,442.4164)" clip-path="url(#clipPath50)" />
    <path id="path51"
      d="m 0,0 c 0.23,0.495 -0.362,1.014 -1.269,0.256 -0.545,-0.453 -1.038,-1.005 -1.401,-1.45 0.312,0.058 0.725,0.206 1.318,0.462 C -0.807,-0.486 -0.329,-0.23 0,0"
      style="fill:#ffffff;fill-opacity:1;fill-rule:nonzero;stroke:none"
      transform="matrix(1.3333333,0,0,-1.3333333,342.71933,442.75853)" clip-path="url(#clipPath52)" />
    <path id="path53"
      d="M 0,0 -0.411,-0.791 -0.84,-1.969 c 0.016,-0.157 0.098,-0.305 0.692,-0.223 0,0 0.247,0.395 0.742,0.997 0.148,0.19 0.363,0.19 0.891,-0.089 -0.577,-0.199 -1.255,-0.628 -1.551,-0.859 -0.445,-0.452 -1.006,-2.027 -0.891,-2.82 0.133,-0.707 1.041,-7.4 1.6,-8.702 0.577,0.816 0.692,1.993 0.66,3.016 -0.033,1.023 -0.216,1.936 -0.264,2.226 -0.082,0.552 -0.478,3.314 -0.708,4.755 1.169,1.096 3.049,0.652 3.246,0.61 L 4.238,-1.12 C 3.593,-0.822 3.248,-0.444 1.814,0.76 0.742,1.039 0.115,0.157 0,0"
      style="fill:#ffffff;fill-opacity:1;fill-rule:nonzero;stroke:none"
      transform="matrix(1.3333333,0,0,-1.3333333,273.17493,508.74187)" clip-path="url(#clipPath54)" />
    <path id="path55"
      d="m 0,0 c 0.889,-1.352 3.361,-5.703 3.56,-5.571 0.38,0.248 0.627,0.641 1.039,1.581 L 6.116,2.168 C 6.23,2.687 6.561,3.1 6.906,3.067 7.336,3.009 8.225,1.582 8.423,1.22 L 9.23,2.391 C 9.528,2.886 9.889,3.48 9.973,4.039 7.219,8.267 5.621,5.4 5.242,4.327 4.895,3.363 4.219,0.957 3.692,-1.277 1.549,3.379 -1.6,5.506 -1.831,5.672 c 0,0 -0.363,-0.76 -0.577,-1.533 C -2.623,3.379 -2.804,2.358 -2.638,1.37 -2.342,-0.528 -0.627,-0.239 0,0"
      style="fill:#ffffff;fill-opacity:1;fill-rule:nonzero;stroke:none"
      transform="matrix(1.3333333,0,0,-1.3333333,256.03187,435.57013)" clip-path="url(#clipPath56)" />
    <path id="path57"
      d="m 0,0 c 3.182,-2.373 4.93,0.824 5.506,5.343 0.197,1.07 0.115,1.449 -0.89,1.021 L 4.121,5.135 C 3.94,4.724 3.759,4.335 3.544,4.023 3.116,3.436 2.588,3.164 1.666,3.677 c -2.441,1.352 -1.04,7.541 0.247,11.976 1.253,4.294 2.571,7.641 2.571,7.641 0,0 0.033,0.188 -0.314,0.931 C 3.924,24.315 3.692,24.216 3.495,24.037 3.297,23.838 3.116,23.54 2.95,23.129 2.638,22.329 0.725,17.589 -0.214,13.782 -1.138,10.089 -2.884,2.143 0,0"
      style="fill:#ffffff;fill-opacity:1;fill-rule:nonzero;stroke:none"
      transform="matrix(1.3333333,0,0,-1.3333333,187.6508,462.89147)" clip-path="url(#clipPath58)" />
    <path id="path59" d="M 459.839,180.942 H 135.18 v 3.053 h 324.659 z"
      style="fill:#ffffff;fill-opacity:1;fill-rule:nonzero;stroke:none"
      transform="matrix(1.3333333,0,0,-1.3333333,0,793.70133)" clip-path="url(#clipPath60)" />
    <path id="path61"
      d="m 0,0 c -34.035,-34.983 -41.432,-74.124 -19.471,-95.092 4.004,-3.982 9.079,-7.153 14.979,-9.483 8.496,-3.462 18.263,-4.99 28.732,-4.76 15.052,0.16 31.866,3.743 48.525,11.002 25.354,11.065 44.245,27.755 53.246,44.971 4.585,6.657 9.415,28.466 -1.726,38.385 -1.208,1.077 -2.461,2.056 -3.729,3.011 -1.117,-2.598 -6.542,-14.022 -9.14,-19.922 -15.345,-1.75 -42.229,18.807 -37.017,21.128 6.894,3.065 14.932,6.695 20.939,9.34 C 52.285,6.961 2.262,-32.019 -12.808,-48.631 -0.978,-8.605 98.654,58.413 154.897,45.301 c 5.7,4.126 15.695,9.383 29.313,7.641 -1.13,-5.136 -4.218,-12.799 -7.963,-18.332 9.889,-10.218 7.122,-28.297 -4.111,-48.777 -11.401,-23.047 -30.766,-47.08 -56.303,-67.851 -57.528,-46.752 -124.652,-59.23 -149.945,-27.884 -0.779,0.964 -1.512,1.973 -2.201,2.996 -18.11,24.299 -6.724,67.131 30.352,105.224 8.927,9.185 18.692,17.424 28.901,24.577 16.338,11.553 36.834,22.941 61.118,30.092 L 81.582,51.382 C 79.855,50.711 77.334,49.687 74.216,48.341 67.966,45.637 59.285,41.617 49.549,36.267 41.725,31.958 33.181,26.717 24.713,20.71 15.925,14.71 7.58,7.78 0,0"
      style="fill:#ffffff;fill-opacity:1;fill-rule:nonzero;stroke:none"
      transform="matrix(1.3333333,0,0,-1.3333333,303.71547,215.51187)" clip-path="url(#clipPath62)" />
  </g>
</svg>
