<?xml version="1.0" encoding="utf-8"?>
<!-- Svg Vector Icons : http://www.onlinewebfonts.com/icon -->
<!DOCTYPE svg PUBLIC "-//W3C//DTD SVG 1.1//EN" "http://www.w3.org/Graphics/SVG/1.1/DTD/svg11.dtd">
<svg version="1.1" xmlns="http://www.w3.org/2000/svg" xmlns:xlink="http://www.w3.org/1999/xlink" x="0px" y="0px" viewBox="0 0 256 256" enable-background="new 0 0 256 256" xml:space="preserve">
<metadata> Svg Vector Icons : http://www.onlinewebfonts.com/icon </metadata>
<g><g><path fill="#000000" d="M203.7,246H52.5c-7,0-13.2-1.1-18.4-3.4c-5.2-2.2-9.7-4.8-13.2-7.8c-3.6-3-6.3-6.1-8.1-9.3c-1.8-3.3-2.7-5.9-2.7-8v-0.1l20.6-110.1c0-4.1,1.5-7.7,4.4-10.5c2.9-2.8,6.5-4.3,10.5-4.3h0.2l0.1,0c1.1,0.3,2.3,0.7,3.8,1.2c1.3,0.3,2.8,0.7,4.4,1.2l4.2,1.2V79.4c0-9.5,1.8-18.5,5.5-27c3.6-8.4,8.7-15.9,15-22.1c6.3-6.2,13.8-11.2,22.2-14.9c8.5-3.6,17.6-5.5,27.2-5.5c9.6,0,18.8,1.8,27.2,5.5c8.4,3.6,15.9,8.6,22.2,14.8c6.3,6.2,11.3,13.7,15,22.1c3.6,8.4,5.5,17.5,5.5,27v16.7l4.1-1.2c1.7-0.5,3.2-0.8,4.4-1.2c1.4-0.5,2.7-0.9,3.7-1.2l0.1,0h0.2c4.2,0,7.8,1.4,10.6,4.3c2.8,2.8,4.3,6.4,4.3,10.5L246,217.4v0.1c0,2.1-0.9,4.7-2.7,8c-1.8,3.2-4.5,6.4-8.1,9.3c-3.6,2.9-8,5.6-13.2,7.8C216.7,244.9,210.6,246,203.7,246L203.7,246z M12.3,217.6c0,1.7,0.8,4,2.4,6.8c1.6,3,4.2,5.9,7.6,8.7c3.4,2.8,7.7,5.3,12.7,7.4c5,2.1,10.9,3.2,17.6,3.2h151.2c6.5,0,12.4-1.1,17.3-3.2c5-2.1,9.3-4.6,12.7-7.4c3.4-2.8,5.9-5.7,7.6-8.7c1.6-2.9,2.4-5.2,2.4-6.8l-20.6-110.1v-0.1c0-3.6-1.2-6.6-3.6-9c-2.4-2.4-5.3-3.6-8.9-3.6c-1,0.3-2.2,0.7-3.5,1.1l-0.1,0c-1.3,0.3-2.7,0.7-4.4,1.2l-7.1,2V79.4c0-9.2-1.8-17.9-5.3-26.1c-3.5-8.2-8.4-15.4-14.5-21.4c-6.1-6-13.3-10.9-21.5-14.4c-8.2-3.5-17-5.2-26.3-5.2c-9.3,0-18.2,1.8-26.3,5.3c-8.2,3.5-15.4,8.4-21.5,14.4c-6.1,6-11,13.2-14.5,21.4c-3.5,8.2-5.3,16.9-5.3,26.1v19.7l-7.1-2.1c-1.6-0.5-3.1-0.8-4.4-1.2l-0.1,0c-1.3-0.4-2.5-0.8-3.5-1.1c-3.4,0-6.3,1.2-8.7,3.7c-2.5,2.5-3.7,5.4-3.7,9v0.1L12.3,217.6L12.3,217.6z M189.9,142.9c-4,0-7.6-1.4-10.5-4.3c-2.9-2.9-4.4-6.4-4.4-10.6c0-2.8,0.7-5.4,2-7.6c1.3-2.2,3.2-4,5.5-5.3l1.7-1v12.7h11.3v-12.7l1.7,1c2.3,1.3,4.2,3.1,5.5,5.3c1.3,2.2,2,4.8,2,7.6c0,4.2-1.4,7.8-4.3,10.6C197.7,141.5,194.1,142.9,189.9,142.9L189.9,142.9z M182,118.2c-1.2,1-2.2,2.1-3,3.4c-1.1,1.8-1.7,4-1.7,6.4c0,3.6,1.2,6.6,3.7,9c2.5,2.5,5.4,3.7,8.9,3.7c3.6,0,6.6-1.2,9-3.6c2.5-2.5,3.6-5.4,3.6-9c0-2.4-0.6-4.6-1.7-6.4c-0.8-1.3-1.8-2.4-3-3.4v10.9H182L182,118.2L182,118.2z M66.1,142.9c-4,0-7.5-1.4-10.4-4.3c-2.9-2.9-4.3-6.4-4.3-10.6c0-5.9,2.5-10.2,7.4-12.9l1.7-0.9v12.7h11.5V114l1.7,1.1c2.2,1.3,3.9,3.1,5.3,5.3c1.3,2.2,2,4.8,2,7.6c0,4.2-1.4,7.8-4.3,10.6C73.8,141.5,70.3,142.9,66.1,142.9L66.1,142.9z M58.1,118.2c-3,2.3-4.5,5.5-4.5,9.8c0,3.6,1.2,6.6,3.6,9c2.5,2.5,5.3,3.6,8.8,3.6c3.6,0,6.5-1.2,9-3.6c2.5-2.5,3.6-5.4,3.6-9c0-2.4-0.6-4.6-1.7-6.4c-0.8-1.3-1.7-2.3-2.8-3.3v10.8H58.1L58.1,118.2L58.1,118.2z M128,108.6c-10,0-19.8-0.7-29.4-2c-9.5-1.3-18.2-2.9-25.8-4.6l-0.9-0.2V81.5c0-7.9,1.5-15.4,4.4-22.4c2.9-7,7-13.1,12-18.4s11.1-9.4,17.8-12.4c6.7-3,14.1-4.6,21.8-4.6c7.8,0,15.1,1.5,22,4.5c6.8,3,12.8,7.2,17.9,12.4c5.1,5.2,9.1,11.4,12,18.4c2.9,7,4.4,14.5,4.4,22.4v20.3l-0.9,0.2c-7.8,1.7-16.5,3.3-26,4.6C147.8,107.9,138,108.6,128,108.6L128,108.6z M74.2,100c7.3,1.6,15.7,3.1,24.7,4.3c9.4,1.3,19.2,2,29.1,2c9.9,0,19.7-0.7,29.1-2c9.1-1.3,17.5-2.7,24.9-4.3V81.5c0-7.6-1.4-14.8-4.2-21.5c-2.8-6.7-6.7-12.6-11.6-17.7c-4.9-5-10.6-9-17.2-11.9c-6.5-2.9-13.6-4.3-21-4.3s-14.5,1.5-20.9,4.3c-6.5,2.9-12.2,6.9-17,11.9c-4.9,5-8.8,11-11.6,17.7c-2.8,6.7-4.2,13.9-4.2,21.5L74.2,100L74.2,100z"/></g></g>
</svg>