<?xml version="1.0" encoding="utf-8"?>
<!-- Svg Vector Icons : http://www.onlinewebfonts.com/icon -->
<!DOCTYPE svg PUBLIC "-//W3C//DTD SVG 1.1//EN" "http://www.w3.org/Graphics/SVG/1.1/DTD/svg11.dtd">
<svg version="1.1" xmlns="http://www.w3.org/2000/svg" xmlns:xlink="http://www.w3.org/1999/xlink" x="0px" y="0px" viewBox="0 0 256 256" enable-background="new 0 0 256 256" xml:space="preserve">
<metadata> Svg Vector Icons : http://www.onlinewebfonts.com/icon </metadata>
<g><g><g><path fill="#000000" d="M123.4,10.1C96.1,12,81.3,15.6,70.2,22.9C60.7,29.3,55.1,38.2,51,53.9c-4.2,15.8-2.8,26.7,6.4,49.4c9.3,23.2,27.6,55.7,41.7,74.1c7.3,9.6,15.3,17.1,20.5,19.4c2.4,1.1,2.5,1.1,2.2,2.7c-0.5,3.1-0.6,3.3-2,2.9c-2.5-0.6-6.7-0.3-9.1,0.7c-7.1,3.1-10.1,11.2-6.8,18.3c2.5,5.3,8.9,12.8,16.9,20.1l5.1,4.6l1.1-1c2.5-2.4,10.5-11.5,13.4-15.4c9.4-12.5,10.7-20,4.7-25.2c-2.3-2-4.5-2.7-8.1-2.7h-2.6l0.1-1.5c0.1-1.4,0.3-1.5,2.5-1.8c5.3-0.8,10.1-3.9,17.1-11.1c9.8-10.1,22-28.3,35.5-52.5c2.7-4.9,6.2-11.7,7.7-15c10-22.1,12.6-44.9,7-61.3c-1.2-3.5-5.6-11.3-9.1-16.2C182.8,25.1,165.9,14.3,146,11C141.8,10.3,128.5,9.8,123.4,10.1z M136.8,17.7c5.5,0.6,11.9,1.8,17.2,3.5c5.3,1.6,15.9,7,20.9,10.6c8.7,6.2,17.1,15.7,20.8,23.4c6.8,14.2,5.8,33.6-2.9,55.8c-2.9,7.3-11.9,25.4-17,34.1c-5.4,9.1-14.4,22.6-19,28.4c-7.1,8.9-16,16.6-20.1,17.3c-1.4,0.3-1.5,0.2-1.5-0.9c0-2.8-0.5-3-5.5-3c-4,0-4.8,0.1-5.5,0.9c-0.5,0.5-0.9,1.4-0.9,2.1c0,1.4-0.4,1.4-3.6-0.1c-6.7-3.1-23.6-24.1-33.8-42c-11.2-19.6-25.5-53.5-28.6-67.5c-3.1-14.3-0.1-30.6,7.8-42.2c7.7-11.3,24.1-18.2,49.4-20.6C118.6,17.1,132.5,17.3,136.8,17.7z M120.7,208.4c1.9,1,4.5,3.4,5.3,4.9c0.6,1.3,0.7,1.3,2.4,0.6c1-0.3,2.6-1.2,3.6-1.8c1.5-1,1.9-1.5,2.2-3.1l0.3-1.9l1.8,0.3c4,0.7,6.1,3.2,6.1,7.3c0,1.3-0.4,3.2-0.9,4.2c-1.8,4-9.4,13.2-14,16.8l-1.7,1.4l-3.6-3c-9.8-8.3-14.5-15.5-13.1-20.2c0.6-2.1,3.4-5.3,5.4-6.2C116,207.2,118.7,207.4,120.7,208.4z"/><path fill="#000000" d="M115.7,212.1c-1.7,0.9-2.9,3-2.9,5.2c0,2.1,1.6,5.6,3.6,8l1.3,1.6l1.5-0.8c0.8-0.4,1.7-1.1,1.8-1.5c0.1-0.4-0.2-2-0.7-3.6c-1.2-3.4-1.2-4.4-0.3-5.6c1-1.2,0.8-2.4-0.3-3.1C118.4,211.3,117.1,211.2,115.7,212.1z"/></g></g></g>
</svg>