<?xml version="1.0" encoding="utf-8"?>
<!-- Generator: Adobe Illustrator 26.0.1, SVG Export Plug-In . SVG Version: 6.00 Build 0)  -->
<svg version="1.1" id="Design" xmlns="http://www.w3.org/2000/svg" xmlns:xlink="http://www.w3.org/1999/xlink" x="0px" y="0px"
	 viewBox="0 0 288 288" style="enable-background:new 0 0 288 288;" xml:space="preserve">
<style type="text/css">
	.st0{display:none;fill:url(#XMLID_00000017482484186536399750000007182199348529781926_);}
	.st1{display:none;}
	.st2{display:inline;}
	.st3{fill:#64C050;}
	.st4{fill:#1E6E54;}
	.st5{opacity:0.3;fill:url(#XMLID_00000080887015326176803030000000107633495130174143_);}
	.st6{fill:url(#XMLID_00000021084723365381271680000011678072267661406850_);}
	.st7{fill:#FFFFFF;}
	.st8{fill:url(#XMLID_00000135688026924628760210000002095437734056063413_);}
	.st9{fill:url(#XMLID_00000046306001654802105350000015115489176188091070_);}
	.st10{fill:url(#XMLID_00000020372297815253835450000003675665522955078811_);}
	.st11{fill:url(#XMLID_00000024693428697325072150000010913349005277884058_);}
	.st12{fill:url(#XMLID_00000011739477119505215300000008659419610959737522_);}
	.st13{fill:url(#XMLID_00000029020160716470401750000001052491811616261523_);}
	.st14{fill:url(#XMLID_00000147203371203254560720000006213305600241978543_);}
</style>
<g id="XMLID_233_">
	
		<radialGradient id="XMLID_00000148655378564018131170000009763195148722058915_" cx="142.6666" cy="119.3334" r="264.3393" gradientTransform="matrix(1 3.393210e-03 -2.817019e-03 0.8302 0.337 19.7801)" gradientUnits="userSpaceOnUse">
		<stop  offset="0.5561" style="stop-color:#FFFFFF"/>
		<stop  offset="1" style="stop-color:#F3F3F3"/>
	</radialGradient>
	
		<rect id="XMLID_5265_" style="display:none;fill:url(#XMLID_00000148655378564018131170000009763195148722058915_);" width="288" height="288"/>
	<g id="XMLID_234_" class="st1">
		<g id="XMLID_235_" class="st2">
			<g id="XMLID_236_">
				<path id="XMLID_237_" class="st3" d="M92.66,220.19c-0.54,0-0.97,0.21-1.27,0.61c-0.3,0.41-0.45,0.98-0.45,1.71
					c0,1.52,0.57,2.28,1.71,2.28c0.48,0,1.06-0.12,1.74-0.36v1.21c-0.56,0.23-1.19,0.35-1.88,0.35c-0.99,0-1.75-0.3-2.28-0.9
					c-0.53-0.6-0.79-1.47-0.79-2.6c0-0.71,0.13-1.33,0.39-1.87c0.26-0.53,0.63-0.94,1.11-1.23c0.48-0.29,1.05-0.43,1.7-0.43
					c0.66,0,1.33,0.16,2,0.48l-0.47,1.18c-0.26-0.12-0.51-0.23-0.77-0.32C93.17,220.24,92.91,220.19,92.66,220.19z"/>
				<path id="XMLID_239_" class="st3" d="M104.93,222.49c0,1.13-0.28,2-0.84,2.61c-0.56,0.61-1.36,0.91-2.41,0.91
					c-1.05,0-1.85-0.3-2.41-0.91c-0.56-0.61-0.84-1.48-0.84-2.62c0-1.14,0.28-2.01,0.84-2.61c0.56-0.6,1.37-0.9,2.42-0.9
					c1.05,0,1.85,0.3,2.41,0.91C104.65,220.49,104.93,221.36,104.93,222.49z M99.95,222.49c0,0.76,0.14,1.34,0.43,1.72
					c0.29,0.39,0.72,0.58,1.3,0.58c1.16,0,1.73-0.77,1.73-2.3c0-1.54-0.57-2.31-1.72-2.31c-0.58,0-1.01,0.19-1.3,0.58
					C100.09,221.15,99.95,221.73,99.95,222.49z"/>
				<path id="XMLID_242_" class="st3" d="M112.11,225.92l-1.64-5.36h-0.04c0.06,1.09,0.09,1.82,0.09,2.18v3.18h-1.29v-6.83h1.97
					l1.62,5.22h0.03l1.71-5.22h1.97v6.83h-1.35v-3.23c0-0.15,0-0.33,0.01-0.53c0-0.2,0.03-0.73,0.06-1.59h-0.04l-1.76,5.35H112.11z"
					/>
				<path id="XMLID_244_" class="st3" d="M125.83,221.22c0,0.73-0.23,1.3-0.69,1.69c-0.46,0.39-1.11,0.58-1.96,0.58h-0.62v2.43
					h-1.45v-6.83h2.18c0.83,0,1.46,0.18,1.89,0.53C125.61,219.98,125.83,220.51,125.83,221.22z M122.56,222.3h0.48
					c0.45,0,0.78-0.09,1-0.26c0.22-0.18,0.33-0.43,0.33-0.77c0-0.34-0.09-0.59-0.28-0.75c-0.19-0.16-0.48-0.24-0.87-0.24h-0.66
					V222.3z"/>
				<path id="XMLID_247_" class="st3" d="M134.17,225.92l-0.5-1.63h-2.49l-0.5,1.63h-1.56l2.41-6.86h1.77l2.42,6.86H134.17z
					 M133.33,223.08c-0.46-1.47-0.72-2.31-0.77-2.5c-0.06-0.19-0.1-0.35-0.12-0.46c-0.1,0.4-0.4,1.38-0.88,2.96H133.33z"/>
				<path id="XMLID_250_" class="st3" d="M145.52,225.92h-1.84l-2.97-5.17h-0.04c0.06,0.91,0.09,1.56,0.09,1.95v3.21h-1.29v-6.83
					h1.83l2.97,5.12h0.03c-0.05-0.89-0.07-1.52-0.07-1.88v-3.23h1.3V225.92z"/>
				<path id="XMLID_252_" class="st3" d="M152.23,221.9l1.42-2.81h1.56l-2.27,4.17v2.66h-1.44v-2.61l-2.27-4.22h1.57L152.23,221.9z"
					/>
				<path id="XMLID_254_" class="st3" d="M170.36,225.92h-1.84l-2.97-5.17h-0.04c0.06,0.91,0.09,1.56,0.09,1.95v3.21h-1.29v-6.83
					h1.83l2.97,5.12h0.03c-0.05-0.89-0.07-1.52-0.07-1.88v-3.23h1.3V225.92z"/>
				<path id="XMLID_256_" class="st3" d="M179.13,225.92l-0.5-1.63h-2.49l-0.5,1.63h-1.56l2.41-6.86h1.77l2.42,6.86H179.13z
					 M178.29,223.08c-0.46-1.47-0.72-2.31-0.77-2.5c-0.06-0.19-0.1-0.35-0.12-0.46c-0.1,0.4-0.4,1.38-0.88,2.96H178.29z"/>
				<path id="XMLID_260_" class="st3" d="M187.32,225.92l-1.64-5.36h-0.04c0.06,1.09,0.09,1.82,0.09,2.18v3.18h-1.29v-6.83h1.97
					l1.62,5.22h0.03l1.71-5.22h1.97v6.83h-1.35v-3.23c0-0.15,0-0.33,0.01-0.53c0-0.2,0.03-0.73,0.06-1.59h-0.04l-1.76,5.35H187.32z"
					/>
				<path id="XMLID_262_" class="st3" d="M200.25,225.92h-3.93v-6.83h3.93v1.19h-2.49v1.5h2.31v1.19h-2.31v1.76h2.49V225.92z"/>
			</g>
		</g>
		<g id="XMLID_264_" class="st2">
			<g id="XMLID_265_">
				<path id="XMLID_266_" class="st4" d="M94.71,234.15h-0.59v-2.3h-0.76v-0.49h2.11v0.49h-0.76V234.15z"/>
				<path id="XMLID_268_" class="st4" d="M101.52,234.15l-0.2-0.66h-1.02l-0.2,0.66h-0.64l0.99-2.8h0.72l0.99,2.8H101.52z
					 M101.17,232.99c-0.19-0.6-0.29-0.94-0.32-1.02c-0.02-0.08-0.04-0.14-0.05-0.19c-0.04,0.16-0.16,0.57-0.36,1.21H101.17z"/>
				<path id="XMLID_271_" class="st4" d="M107.48,232.59h1.11v1.45c-0.18,0.06-0.35,0.1-0.51,0.12c-0.16,0.02-0.32,0.04-0.49,0.04
					c-0.42,0-0.74-0.12-0.96-0.37c-0.22-0.25-0.33-0.6-0.33-1.07c0-0.45,0.13-0.8,0.39-1.05c0.26-0.25,0.62-0.38,1.07-0.38
					c0.29,0,0.56,0.06,0.83,0.17l-0.2,0.47c-0.2-0.1-0.42-0.15-0.64-0.15c-0.26,0-0.46,0.09-0.61,0.26
					c-0.15,0.17-0.23,0.4-0.23,0.69c0,0.3,0.06,0.53,0.19,0.69s0.3,0.24,0.54,0.24c0.12,0,0.25-0.01,0.38-0.04v-0.58h-0.53V232.59z"
					/>
				<path id="XMLID_273_" class="st4" d="M113.16,234.15v-2.79h0.59v2.3h1.13v0.49H113.16z"/>
				<path id="XMLID_275_" class="st4" d="M119.28,234.15v-2.79h0.59v2.79H119.28z"/>
				<path id="XMLID_277_" class="st4" d="M126.96,234.15h-0.75l-1.21-2.11h-0.02c0.02,0.37,0.04,0.64,0.04,0.8v1.31h-0.53v-2.79
					h0.75l1.21,2.09h0.01c-0.02-0.36-0.03-0.62-0.03-0.77v-1.32h0.53V234.15z"/>
				<path id="XMLID_279_" class="st4" d="M133.18,234.15h-1.61v-2.79h1.61v0.48h-1.02v0.61h0.94v0.48h-0.94v0.72h1.02V234.15z"/>
				<path id="XMLID_281_" class="st4" d="M143.66,232.59h1.11v1.45c-0.18,0.06-0.35,0.1-0.51,0.12c-0.16,0.02-0.32,0.04-0.49,0.04
					c-0.42,0-0.74-0.12-0.96-0.37c-0.22-0.25-0.33-0.6-0.33-1.07c0-0.45,0.13-0.8,0.39-1.05c0.26-0.25,0.62-0.38,1.07-0.38
					c0.29,0,0.56,0.06,0.83,0.17l-0.2,0.47c-0.2-0.1-0.42-0.15-0.64-0.15c-0.26,0-0.46,0.09-0.62,0.26
					c-0.15,0.17-0.23,0.4-0.23,0.69c0,0.3,0.06,0.53,0.19,0.69c0.12,0.16,0.3,0.24,0.54,0.24c0.12,0,0.25-0.01,0.38-0.04v-0.58
					h-0.53V232.59z"/>
				<path id="XMLID_283_" class="st4" d="M151.87,232.76c0,0.46-0.11,0.82-0.34,1.07c-0.23,0.25-0.56,0.37-0.98,0.37
					c-0.43,0-0.76-0.12-0.99-0.37c-0.23-0.25-0.34-0.6-0.34-1.07c0-0.46,0.11-0.82,0.34-1.06c0.23-0.24,0.56-0.37,0.99-0.37
					c0.43,0,0.76,0.12,0.98,0.37C151.76,231.94,151.87,232.29,151.87,232.76z M149.83,232.76c0,0.31,0.06,0.55,0.18,0.7
					c0.12,0.16,0.29,0.24,0.53,0.24c0.47,0,0.71-0.31,0.71-0.94c0-0.63-0.24-0.94-0.71-0.94c-0.24,0-0.41,0.08-0.53,0.24
					C149.89,232.21,149.83,232.44,149.83,232.76z"/>
				<path id="XMLID_286_" class="st4" d="M157.97,234.15h-1.61v-2.79h1.61v0.48h-1.02v0.61h0.94v0.48h-0.94v0.72h1.02V234.15z"/>
				<path id="XMLID_288_" class="st4" d="M164.11,233.38c0,0.25-0.09,0.45-0.27,0.6c-0.18,0.15-0.43,0.22-0.76,0.22
					c-0.3,0-0.56-0.06-0.79-0.17v-0.55c0.19,0.08,0.35,0.14,0.48,0.18c0.13,0.03,0.25,0.05,0.36,0.05c0.13,0,0.23-0.02,0.3-0.07
					c0.07-0.05,0.1-0.12,0.1-0.22c0-0.05-0.01-0.1-0.05-0.15c-0.03-0.04-0.08-0.08-0.13-0.12c-0.06-0.04-0.18-0.1-0.36-0.19
					c-0.17-0.08-0.3-0.16-0.38-0.23c-0.09-0.07-0.15-0.16-0.2-0.26c-0.05-0.1-0.08-0.21-0.08-0.34c0-0.25,0.08-0.44,0.25-0.58
					c0.17-0.14,0.4-0.21,0.69-0.21c0.15,0,0.28,0.02,0.42,0.05c0.13,0.03,0.27,0.08,0.41,0.15l-0.19,0.46
					c-0.15-0.06-0.27-0.1-0.37-0.13c-0.1-0.02-0.19-0.04-0.29-0.04c-0.11,0-0.2,0.03-0.26,0.08c-0.06,0.05-0.09,0.12-0.09,0.2
					c0,0.05,0.01,0.1,0.04,0.14c0.02,0.04,0.06,0.08,0.12,0.11c0.05,0.04,0.18,0.1,0.38,0.2c0.26,0.12,0.44,0.25,0.54,0.38
					C164.06,233.04,164.11,233.2,164.11,233.38z"/>
				<path id="XMLID_290_" class="st4" d="M175.74,234.15h-0.59v-1.2h-1.1v1.2h-0.59v-2.79h0.59v1.09h1.1v-1.09h0.59V234.15z"/>
				<path id="XMLID_292_" class="st4" d="M181.96,234.15h-1.61v-2.79h1.61v0.48h-1.02v0.61h0.94v0.48h-0.94v0.72h1.02V234.15z"/>
				<path id="XMLID_294_" class="st4" d="M187.04,233.08v1.07h-0.59v-2.79h0.81c0.38,0,0.66,0.07,0.84,0.21
					c0.18,0.14,0.27,0.35,0.27,0.63c0,0.16-0.05,0.31-0.14,0.44c-0.09,0.13-0.22,0.23-0.38,0.3c0.42,0.63,0.69,1.03,0.82,1.22h-0.66
					l-0.67-1.07H187.04z M187.04,232.6h0.19c0.19,0,0.33-0.03,0.41-0.09c0.09-0.06,0.13-0.16,0.13-0.29c0-0.13-0.05-0.23-0.14-0.28
					c-0.09-0.06-0.23-0.08-0.42-0.08h-0.18V232.6z"/>
				<path id="XMLID_297_" class="st4" d="M194.55,234.15h-1.61v-2.79h1.61v0.48h-1.02v0.61h0.95v0.48h-0.95v0.72h1.02V234.15z"/>
			</g>
		</g>
	</g>
	
		<radialGradient id="XMLID_00000102515827023022343040000007658830823245541796_" cx="638.9322" cy="1054.2087" r="7.363" gradientTransform="matrix(15.3164 0 0 1.2102 -9638.8594 -1073.0074)" gradientUnits="userSpaceOnUse">
		<stop  offset="0.0419" style="stop-color:#B3B5B8"/>
		<stop  offset="0.0499" style="stop-color:#B5B7BA"/>
		<stop  offset="0.187" style="stop-color:#D0D1D3"/>
		<stop  offset="0.3356" style="stop-color:#E5E5E6"/>
		<stop  offset="0.5019" style="stop-color:#F4F4F4"/>
		<stop  offset="0.6983" style="stop-color:#FCFCFC"/>
		<stop  offset="1" style="stop-color:#FFFFFF"/>
	</radialGradient>
	<path id="XMLID_5200_" style="opacity:0.3;fill:url(#XMLID_00000102515827023022343040000007658830823245541796_);" d="
		M260.05,202.8c0,4.92-50.49,8.91-112.78,8.91c-62.29,0-112.76-3.99-112.76-8.91c0-4.92,50.48-8.91,112.76-8.91
		C209.56,193.89,260.05,197.87,260.05,202.8z"/>
	<g id="XMLID_299_">
		<g id="XMLID_300_">
			<g id="XMLID_301_">
				
					<radialGradient id="XMLID_00000052105369651932231470000002906093119378518407_" cx="71.7715" cy="118.7144" r="203.3085" gradientTransform="matrix(0.9997 0.0255 -0.0255 0.9997 -2.1743 -6.0427)" gradientUnits="userSpaceOnUse">
					<stop  offset="0.2182" style="stop-color:#0063AF"/>
					<stop  offset="0.3271" style="stop-color:#1B7CC0"/>
					<stop  offset="0.4788" style="stop-color:#46A6DD"/>
					<stop  offset="0.5195" style="stop-color:#60B2E2"/>
					<stop  offset="0.6049" style="stop-color:#90CAEB"/>
					<stop  offset="0.69" style="stop-color:#B8DDF2"/>
					<stop  offset="0.7731" style="stop-color:#D7ECF8"/>
					<stop  offset="0.8537" style="stop-color:#EDF6FC"/>
					<stop  offset="0.9306" style="stop-color:#FAFDFE"/>
					<stop  offset="1" style="stop-color:#FFFFFF"/>
				</radialGradient>
				<path id="XMLID_5199_" style="fill:url(#XMLID_00000052105369651932231470000002906093119378518407_);" d="M139.28,97.55
					c0,0-8.97-1.01-28.75,6.8c-16.89,6.67-25.51-1.4-25.51-1.4s-8.43,21.42-10.3,31.63c-1.87,10.21-0.52,16.39-0.52,16.39
					s31.63,25,49.54,36.29c17.91,11.28,21.48,12.88,25.63,8.33c5.88-6.46-0.67-10.42-9.82-17.19c0,0,13.43,10.33,17.87,11.18
					c5.07,0.96,12.66-5.77,7.35-11.61c-5.31-5.84-15.41-14.61-15.41-14.61s18.33,15.83,21.99,16.99c3.65,1.16,7.74-2.02,9.62-5.2
					c3.82-6.47-3.42-11.19-9.65-17.29c-3.88-3.8-9.51-8.53-9.51-8.53s14.81,14.37,21.17,14.76c7.42,0.45,10.75-7.46,8.15-12.28
					c-2.48-4.61-13.51-16.26-26.62-30.25C154.84,111.23,147.53,98.47,139.28,97.55z"/>
				<path id="XMLID_5196_" class="st7" d="M144.96,198.84c-3.92,0.1-9.62-3.23-21.7-10.84c-17.75-11.18-49.3-36.09-49.61-36.34
					c-0.16-0.13-0.28-0.31-0.32-0.51c-0.06-0.26-1.37-6.47,0.51-16.74c1.86-10.18,10-30.92,10.35-31.8
					c0.11-0.28,0.34-0.48,0.63-0.54c0.29-0.07,0.59,0.02,0.81,0.22c0.04,0.04,4.42,4,12.85,3.8c3.68-0.09,7.63-0.95,11.71-2.57
					c14.66-5.78,23.43-6.81,27.36-6.9c1.2-0.03,1.81,0.04,1.83,0.04c6.2,0.7,11.62,7.34,17.88,15.03c2.5,3.08,5.09,6.26,7.89,9.24
					l2.13,2.26c12.42,13.24,22.23,23.71,24.62,28.17c1.43,2.66,1.28,6.22-0.37,9.07c-1.64,2.81-4.45,4.46-7.71,4.54l0,0
					c-0.29,0.01-0.6,0-0.91-0.02c-1.14-0.07-2.57-0.54-4.27-1.4c3.55,3.68,5.79,7.43,3.09,12.02c-1.64,2.77-5.04,5.8-8.64,5.88
					c-0.69,0.02-1.38-0.08-2.02-0.28c-0.97-0.31-2.84-1.52-5.1-3.18c1.59,2.11,1.93,4.52,0.93,6.86c-1.35,3.16-4.93,5.6-8.31,5.68
					c-0.46,0.01-0.91-0.02-1.35-0.11c-1.21-0.23-3.07-1.09-5.55-2.56c0.44,0.81,0.71,1.63,0.79,2.49c0.17,1.9-0.63,3.8-2.46,5.81
					C148.37,198,146.86,198.79,144.96,198.84z M75.02,150.46c3.08,2.43,32.39,25.44,49.2,36.03c11.5,7.24,17.29,10.65,20.7,10.57
					c1.38-0.03,2.47-0.64,3.79-2.08c1.47-1.61,2.12-3.07,2-4.44c-0.23-2.42-2.79-4.8-6.86-7.87c-2.77-1.98-4.84-3.58-4.84-3.58
					c-0.39-0.3-0.46-0.85-0.17-1.25c0.3-0.39,0.85-0.47,1.24-0.18l1.94,1.43c1.02,0.74,1.99,1.46,2.9,2.14
					c6.2,4.43,10.7,7.07,12.66,7.44c0.3,0.06,0.63,0.08,0.97,0.08c2.64-0.06,5.65-2.13,6.7-4.6c0.58-1.34,0.85-3.41-1.15-5.61
					c-5.21-5.73-15.23-14.44-15.34-14.53c-0.37-0.33-0.41-0.89-0.09-1.26c0.33-0.37,0.89-0.41,1.26-0.09v0l0,0l0,0
					c7.31,6.31,19.12,16,21.67,16.81c0.46,0.14,0.95,0.21,1.44,0.2c2.79-0.07,5.7-2.57,7.14-5.01c2.7-4.57-0.68-8.03-6.42-13.29
					c-1.02-0.94-2.07-1.9-3.09-2.91c-0.51-0.5-1.05-1.01-1.61-1.53c-4.29-3.5-7.86-6.96-7.9-6.99c-0.35-0.33-0.37-0.88-0.04-1.24
					c0.32-0.35,0.87-0.39,1.24-0.08c0.05,0.04,4.29,3.61,7.92,7.01c5.77,4.7,10.31,7.39,12.73,7.54c4.04,0.25,6.13-2.22,6.96-3.64
					c1.35-2.33,1.49-5.2,0.35-7.33c-2.29-4.26-12.51-15.16-24.35-27.79l-2.12-2.27c-2.84-3.03-5.45-6.23-7.97-9.33
					c-6.02-7.39-11.22-13.77-16.7-14.39c-0.04-0.01-0.56-0.06-1.59-0.03c-3.07,0.07-11.81,0.88-26.74,6.78
					c-4.28,1.69-8.43,2.6-12.33,2.69c-6.89,0.17-11.26-2.21-13.1-3.49c-1.74,4.52-8.23,21.67-9.82,30.35
					C74.02,143.38,74.79,149.12,75.02,150.46z"/>
			</g>
			<g id="XMLID_302_">
				<g id="XMLID_303_">
					
						<radialGradient id="XMLID_00000043452869589918686900000008991724519067943309_" cx="124.1989" cy="139.1024" r="112.7504" gradientTransform="matrix(0.9997 0.0255 -0.0255 0.9997 -2.1743 -6.0427)" gradientUnits="userSpaceOnUse">
						<stop  offset="0.0667" style="stop-color:#209546"/>
						<stop  offset="0.1252" style="stop-color:#259746"/>
						<stop  offset="0.1983" style="stop-color:#359E45"/>
						<stop  offset="0.2789" style="stop-color:#4EAA43"/>
						<stop  offset="0.3646" style="stop-color:#71BA41"/>
						<stop  offset="0.4061" style="stop-color:#85C340"/>
						<stop  offset="0.4836" style="stop-color:#99CA40"/>
						<stop  offset="0.6" style="stop-color:#BFD740"/>
						<stop  offset="0.6517" style="stop-color:#CBDE64"/>
						<stop  offset="0.7398" style="stop-color:#DDEA9B"/>
						<stop  offset="0.8218" style="stop-color:#ECF3C6"/>
						<stop  offset="0.895" style="stop-color:#F6FAE5"/>
						<stop  offset="0.9569" style="stop-color:#FDFEF8"/>
						<stop  offset="1" style="stop-color:#FFFFFF"/>
					</radialGradient>
					<path id="XMLID_5194_" style="fill:url(#XMLID_00000043452869589918686900000008991724519067943309_);" d="M192.49,100.01
						c0,0-16.59,1.33-26.24-0.74c-8.21-1.77-22.06-5.86-25.61-5.09c-3.55,0.77-6.19,1.14-12.53,7.96
						c-6.34,6.82-12,13.68-13.87,15.09c-1.87,1.41,3.97,6.06,11.86,5.29c7.9-0.77,13.59-6.69,17.71-11.22
						c4.13-4.53,14.91,6.14,21.97,12.64c7.6,7.01,16.3,17.17,20.77,21.18c5.4,4.85,9.84,3.68,9.84,3.68S200.87,117.54,192.49,100.01
						z"/>
					<path id="XMLID_5191_" class="st7" d="M195.29,149.82L195.29,149.82c-1.77,0.04-5.35-0.42-9.36-4.03
						c-2.05-1.84-4.93-4.9-8.25-8.44c-3.94-4.19-8.4-8.94-12.53-12.75l-1.6-1.48c-5.5-5.11-13.03-12.11-17.27-12.01
						c-0.76,0.02-1.35,0.28-1.83,0.8c-4.7,5.17-10.38,10.74-18.28,11.51c-6.79,0.65-12.26-2.51-13.06-4.81
						c-0.28-0.81-0.07-1.59,0.58-2.08c1.04-0.78,3.58-3.65,6.53-6.97c2.17-2.45,4.64-5.23,7.24-8.02c6.32-6.79,9.11-7.39,12.64-8.15
						l0.35-0.08c2.66-0.57,10.42,1.31,17.94,3.17c2.94,0.72,5.71,1.41,8.06,1.92c5.3,1.14,12.8,1.22,18.15,1.1
						c4.47-0.11,7.8-0.37,7.84-0.38c0.42-0.03,0.71,0.17,0.88,0.51c8.4,17.57,4.14,48.02,3.95,49.31c-0.06,0.35-0.32,0.64-0.67,0.73
						C196.54,149.69,196.07,149.81,195.29,149.82z M146.23,109.33c4.96-0.12,12.49,6.87,18.54,12.49l1.59,1.48
						c4.18,3.85,8.66,8.63,12.62,12.84c3.3,3.51,6.14,6.54,8.14,8.33c3.56,3.19,6.62,3.61,8.13,3.57l0,0c0.12,0,0.23-0.01,0.32-0.02
						c0.57-4.54,3.55-31.31-3.62-47.08c-1.18,0.08-3.92,0.25-7.31,0.34c-5.45,0.13-13.1,0.04-18.58-1.14
						c-2.36-0.51-5.15-1.2-8.11-1.93c-6.84-1.69-14.72-3.68-17.13-3.15l-0.36,0.08c-3.22,0.69-5.77,1.24-11.71,7.62
						c-2.59,2.78-5.05,5.55-7.21,7.99c-3.26,3.67-5.6,6.32-6.78,7.21c0,0.03,0.09,0.31,0.51,0.75c1.34,1.39,5.44,3.46,10.73,2.94
						c7.27-0.71,12.66-6.02,17.14-10.93C143.94,109.83,144.98,109.36,146.23,109.33z"/>
				</g>
				<g id="XMLID_304_">
					
						<radialGradient id="XMLID_00000104671381328384370690000003725521540103247510_" cx="124.1993" cy="139.1032" r="112.7065" gradientTransform="matrix(0.9997 0.0255 -0.0255 0.9997 -2.1743 -6.0427)" gradientUnits="userSpaceOnUse">
						<stop  offset="0.0667" style="stop-color:#209546"/>
						<stop  offset="0.1252" style="stop-color:#259746"/>
						<stop  offset="0.1983" style="stop-color:#359E45"/>
						<stop  offset="0.2789" style="stop-color:#4EAA43"/>
						<stop  offset="0.3646" style="stop-color:#71BA41"/>
						<stop  offset="0.4061" style="stop-color:#85C340"/>
						<stop  offset="0.4836" style="stop-color:#99CA40"/>
						<stop  offset="0.6" style="stop-color:#BFD740"/>
						<stop  offset="0.6517" style="stop-color:#CBDE64"/>
						<stop  offset="0.7398" style="stop-color:#DDEA9B"/>
						<stop  offset="0.8218" style="stop-color:#ECF3C6"/>
						<stop  offset="0.895" style="stop-color:#F6FAE5"/>
						<stop  offset="0.9569" style="stop-color:#FDFEF8"/>
						<stop  offset="1" style="stop-color:#FFFFFF"/>
					</radialGradient>
					<path id="XMLID_5189_" style="fill:url(#XMLID_00000104671381328384370690000003725521540103247510_);" d="M92.64,165.51
						c-2.23,2.03-5.69,1.87-7.72-0.37l-2.14-2.36c-2.03-2.23-1.86-5.69,0.37-7.72l10.67-9.7c2.24-2.03,5.69-1.86,7.72,0.37
						l2.14,2.36c2.03,2.23,1.86,5.69-0.37,7.72L92.64,165.51z"/>
					<path id="XMLID_5186_" class="st7" d="M89.11,167.82c-1.84,0.04-3.61-0.71-4.86-2.08l-2.14-2.36
						c-2.36-2.59-2.17-6.62,0.42-8.98l10.67-9.69c1.14-1.03,2.59-1.62,4.12-1.65c1.85-0.04,3.62,0.71,4.86,2.08l2.14,2.36
						c2.36,2.59,2.17,6.62-0.42,8.98l-10.67,9.69C92.11,167.2,90.64,167.79,89.11,167.82z M97.38,144.85
						c-1.1,0.03-2.15,0.45-2.97,1.19l-10.67,9.69c-1.86,1.7-2,4.59-0.31,6.46l2.14,2.36c1.63,1.79,4.66,1.94,6.46,0.31l10.67-9.7
						c1.87-1.69,2-4.59,0.31-6.46l-2.14-2.36C99.97,145.36,98.7,144.81,97.38,144.85z"/>
				</g>
				<g id="XMLID_305_">
					
						<radialGradient id="XMLID_00000093160948345039304490000017209889162341810871_" cx="124.1999" cy="139.1003" r="112.7169" gradientTransform="matrix(0.9997 0.0255 -0.0255 0.9997 -2.1743 -6.0427)" gradientUnits="userSpaceOnUse">
						<stop  offset="0.0667" style="stop-color:#209546"/>
						<stop  offset="0.1252" style="stop-color:#259746"/>
						<stop  offset="0.1983" style="stop-color:#359E45"/>
						<stop  offset="0.2789" style="stop-color:#4EAA43"/>
						<stop  offset="0.3646" style="stop-color:#71BA41"/>
						<stop  offset="0.4061" style="stop-color:#85C340"/>
						<stop  offset="0.4836" style="stop-color:#99CA40"/>
						<stop  offset="0.6" style="stop-color:#BFD740"/>
						<stop  offset="0.6517" style="stop-color:#CBDE64"/>
						<stop  offset="0.7398" style="stop-color:#DDEA9B"/>
						<stop  offset="0.8218" style="stop-color:#ECF3C6"/>
						<stop  offset="0.895" style="stop-color:#F6FAE5"/>
						<stop  offset="0.9569" style="stop-color:#FDFEF8"/>
						<stop  offset="1" style="stop-color:#FFFFFF"/>
					</radialGradient>
					<path id="XMLID_5184_" style="fill:url(#XMLID_00000093160948345039304490000017209889162341810871_);" d="M101.82,177.73
						c-2.23,2.03-5.68,1.86-7.71-0.37L91.97,175c-2.03-2.23-1.87-5.69,0.36-7.72l10.67-9.69c2.24-2.03,5.69-1.86,7.72,0.37
						l2.14,2.36c2.03,2.23,1.86,5.69-0.36,7.72L101.82,177.73z"/>
					<path id="XMLID_5181_" class="st7" d="M98.31,180.04c-1.85,0.04-3.62-0.71-4.86-2.08l-2.15-2.36
						c-2.35-2.59-2.16-6.62,0.43-8.98l10.67-9.69c1.13-1.03,2.59-1.61,4.12-1.65c1.85-0.04,3.62,0.71,4.87,2.08l2.14,2.36
						c2.35,2.59,2.16,6.62-0.43,8.98l-10.66,9.7C101.29,179.42,99.83,180,98.31,180.04z M106.57,157.07
						c-1.1,0.03-2.15,0.45-2.96,1.19l-10.67,9.69c-1.86,1.7-2,4.59-0.31,6.46l2.15,2.36c1.63,1.79,4.66,1.94,6.45,0.31l10.67-9.7
						c1.86-1.69,2-4.59,0.31-6.46l-2.15-2.35C109.17,157.58,107.89,157.04,106.57,157.07z"/>
				</g>
				<g id="XMLID_306_">
					
						<radialGradient id="XMLID_00000137093565325208723080000009609033340326659007_" cx="124.2013" cy="139.1011" r="112.7142" gradientTransform="matrix(0.9997 0.0255 -0.0255 0.9997 -2.1743 -6.0427)" gradientUnits="userSpaceOnUse">
						<stop  offset="0.0667" style="stop-color:#209546"/>
						<stop  offset="0.1252" style="stop-color:#259746"/>
						<stop  offset="0.1983" style="stop-color:#359E45"/>
						<stop  offset="0.2789" style="stop-color:#4EAA43"/>
						<stop  offset="0.3646" style="stop-color:#71BA41"/>
						<stop  offset="0.4061" style="stop-color:#85C340"/>
						<stop  offset="0.4836" style="stop-color:#99CA40"/>
						<stop  offset="0.6" style="stop-color:#BFD740"/>
						<stop  offset="0.6517" style="stop-color:#CBDE64"/>
						<stop  offset="0.7398" style="stop-color:#DDEA9B"/>
						<stop  offset="0.8218" style="stop-color:#ECF3C6"/>
						<stop  offset="0.895" style="stop-color:#F6FAE5"/>
						<stop  offset="0.9569" style="stop-color:#FDFEF8"/>
						<stop  offset="1" style="stop-color:#FFFFFF"/>
					</radialGradient>
					<path id="XMLID_5179_" style="fill:url(#XMLID_00000137093565325208723080000009609033340326659007_);" d="M114.74,186.92
						c-2.23,2.03-5.69,1.86-7.72-0.37l-2.14-2.36c-2.03-2.23-1.86-5.69,0.37-7.72l10.67-9.7c2.23-2.03,5.69-1.86,7.72,0.37
						l2.14,2.36c2.03,2.23,1.87,5.69-0.36,7.72L114.74,186.92z"/>
					<path id="XMLID_5176_" class="st7" d="M111.22,189.23c-1.85,0.04-3.62-0.72-4.86-2.08l-2.13-2.36
						c-1.15-1.26-1.73-2.88-1.65-4.58c0.08-1.69,0.81-3.26,2.07-4.4l10.67-9.7c1.13-1.03,2.6-1.61,4.13-1.65
						c1.84-0.04,3.61,0.71,4.85,2.08l2.14,2.36c2.36,2.59,2.17,6.62-0.43,8.98l-10.67,9.69
						C114.21,188.61,112.75,189.19,111.22,189.23z M119.48,166.25c-1.1,0.03-2.15,0.45-2.96,1.19l-10.67,9.7
						c-0.9,0.82-1.44,1.94-1.5,3.16c-0.05,1.22,0.37,2.39,1.19,3.29l2.15,2.36c1.63,1.79,4.66,1.94,6.46,0.31l10.67-9.69
						c1.87-1.69,2-4.59,0.31-6.46l-2.14-2.36C122.08,166.77,120.81,166.22,119.48,166.25z"/>
				</g>
				<g id="XMLID_307_">
					
						<radialGradient id="XMLID_00000088822830791528843260000014799735736122218130_" cx="124.1988" cy="139.0993" r="112.7138" gradientTransform="matrix(0.9997 0.0255 -0.0255 0.9997 -2.1743 -6.0427)" gradientUnits="userSpaceOnUse">
						<stop  offset="0.0667" style="stop-color:#209546"/>
						<stop  offset="0.1252" style="stop-color:#259746"/>
						<stop  offset="0.1983" style="stop-color:#359E45"/>
						<stop  offset="0.2789" style="stop-color:#4EAA43"/>
						<stop  offset="0.3646" style="stop-color:#71BA41"/>
						<stop  offset="0.4061" style="stop-color:#85C340"/>
						<stop  offset="0.4836" style="stop-color:#99CA40"/>
						<stop  offset="0.6" style="stop-color:#BFD740"/>
						<stop  offset="0.6517" style="stop-color:#CBDE64"/>
						<stop  offset="0.7398" style="stop-color:#DDEA9B"/>
						<stop  offset="0.8218" style="stop-color:#ECF3C6"/>
						<stop  offset="0.895" style="stop-color:#F6FAE5"/>
						<stop  offset="0.9569" style="stop-color:#FDFEF8"/>
						<stop  offset="1" style="stop-color:#FFFFFF"/>
					</radialGradient>
					<path id="XMLID_5174_" style="fill:url(#XMLID_00000088822830791528843260000014799735736122218130_);" d="M128.03,195.44
						c-2.24,2.03-5.69,1.87-7.72-0.37l-2.14-2.36c-2.03-2.23-1.86-5.69,0.37-7.72l10.66-9.7c2.24-2.03,5.69-1.86,7.72,0.37
						l2.14,2.36c2.03,2.23,1.86,5.69-0.37,7.72L128.03,195.44z"/>
					<path id="XMLID_5105_" class="st7" d="M124.51,197.75c-1.85,0.05-3.62-0.71-4.86-2.08l-2.14-2.36
						c-1.14-1.26-1.72-2.88-1.65-4.58c0.08-1.69,0.82-3.26,2.08-4.4l10.67-9.7c1.13-1.03,2.6-1.61,4.12-1.65
						c1.85-0.04,3.62,0.71,4.86,2.08l2.14,2.36c1.15,1.26,1.74,2.88,1.65,4.58c-0.08,1.7-0.81,3.26-2.07,4.4l-10.66,9.7
						C127.49,197.13,126.03,197.72,124.51,197.75z M132.76,174.78c-1.1,0.02-2.15,0.45-2.96,1.19l-10.67,9.69
						c-0.9,0.82-1.43,1.95-1.49,3.17c-0.06,1.22,0.36,2.39,1.19,3.29l2.14,2.36c1.63,1.8,4.66,1.94,6.46,0.31l10.66-9.69
						c0.9-0.82,1.43-1.94,1.49-3.17c0.06-1.22-0.36-2.39-1.19-3.29l-2.14-2.36C135.37,175.29,134.09,174.75,132.76,174.78z"/>
				</g>
			</g>
			<g id="XMLID_308_">
				
					<radialGradient id="XMLID_00000133531329002798138300000008007201171677860533_" cx="23.7078" cy="122.3549" r="131.7287" gradientTransform="matrix(0.9997 0.0255 -0.0255 0.9997 -2.1743 -6.0427)" gradientUnits="userSpaceOnUse">
					<stop  offset="0.2182" style="stop-color:#58595B"/>
					<stop  offset="0.3085" style="stop-color:#616163"/>
					<stop  offset="0.453" style="stop-color:#78797A"/>
					<stop  offset="0.6336" style="stop-color:#9E9EA0"/>
					<stop  offset="0.8411" style="stop-color:#D2D2D3"/>
					<stop  offset="1" style="stop-color:#FFFFFF"/>
				</radialGradient>
				<polygon id="XMLID_5102_" style="fill:url(#XMLID_00000133531329002798138300000008007201171677860533_);" points="
					95.16,101.47 74.6,158.7 34.88,144.63 55.08,88.06 				"/>
				<path id="XMLID_5098_" class="st7" d="M74.62,159.59c-0.11,0-0.21-0.01-0.32-0.05l-39.72-14.07c-0.22-0.08-0.4-0.25-0.5-0.46
					c-0.11-0.22-0.12-0.46-0.04-0.69l20.2-56.57c0.16-0.46,0.67-0.7,1.12-0.55l40.08,13.41c0.23,0.07,0.42,0.24,0.52,0.46
					c0.11,0.22,0.12,0.46,0.03,0.69L75.44,159C75.32,159.36,74.98,159.59,74.62,159.59z M36.02,144.09l38.04,13.47l19.95-55.54
					L55.63,89.18L36.02,144.09z"/>
			</g>
			<g id="XMLID_309_">
				
					<radialGradient id="XMLID_00000073718287962435277070000016072000950492532399_" cx="258.545" cy="115.2542" r="93.655" gradientTransform="matrix(0.9997 0.0255 -0.0255 0.9997 -2.1743 -6.0427)" gradientUnits="userSpaceOnUse">
					<stop  offset="0.2182" style="stop-color:#58595B"/>
					<stop  offset="0.3085" style="stop-color:#616163"/>
					<stop  offset="0.453" style="stop-color:#78797A"/>
					<stop  offset="0.6336" style="stop-color:#9E9EA0"/>
					<stop  offset="0.8411" style="stop-color:#D2D2D3"/>
					<stop  offset="1" style="stop-color:#FFFFFF"/>
				</radialGradient>
				<polygon id="XMLID_4712_" style="fill:url(#XMLID_00000073718287962435277070000016072000950492532399_);" points="
					228.69,89.77 237.27,149.98 195.58,156.11 186.99,96.66 				"/>
				<path id="XMLID_3547_" class="st7" d="M195.6,157c-0.19,0.01-0.39-0.05-0.55-0.17c-0.19-0.14-0.32-0.35-0.35-0.59l-8.59-59.46
					c-0.07-0.48,0.26-0.93,0.74-1.01l41.7-6.89c0.23-0.04,0.47,0.02,0.67,0.16c0.19,0.14,0.32,0.36,0.35,0.59l8.59,60.21
					c0.07,0.49-0.27,0.93-0.76,1.01l-41.69,6.14C195.68,157,195.64,157.01,195.6,157z M187.99,97.4l8.35,57.7l39.92-5.88
					l-8.33-58.42L187.99,97.4z"/>
			</g>
		</g>
	</g>
</g>
</svg>
